<svg width="779" height="245" viewBox="0 0 779 245" fill="none" xmlns="http://www.w3.org/2000/svg">
<rect y="218" width="27" height="27" fill="#2A3548"/>
<rect x="188" y="123" width="27" height="122" fill="#2A3548"/>
<rect x="376" width="27" height="245" fill="#2A3548"/>
<rect x="94" y="209" width="27" height="36" fill="#2A3548"/>
<rect x="282" y="111" width="27" height="134" fill="#2A3548"/>
<rect x="470" y="190" width="27" height="55" fill="#2A3548"/>
<rect x="47" y="190" width="27" height="55" fill="#2A3548"/>
<rect x="235" y="33" width="27" height="212" fill="#2A3548"/>
<rect x="423" y="111" width="27" height="134" fill="#2A3548"/>
<rect x="141" y="157" width="27" height="88" fill="#2A3548"/>
<rect x="329" y="65" width="27" height="180" fill="#2A3548"/>
<rect x="517" y="157" width="27" height="88" fill="#2A3548"/>
<rect x="564" y="65" width="27" height="180" fill="#2A3548"/>
<rect x="611" y="33" width="27" height="212" fill="#2A3548"/>
<rect x="658" y="94" width="27" height="151" fill="#2A3548"/>
<rect x="705" y="157" width="27" height="88" fill="#2A3548"/>
<rect x="752" y="209" width="27" height="36" fill="#2A3548"/>
</svg>
